<svg width="418" height="392" xmlns="http://www.w3.org/2000/svg" xmlns:xlink="http://www.w3.org/1999/xlink" overflow="hidden"><defs><clipPath id="clip0"><rect x="433" y="141" width="418" height="392"/></clipPath></defs><g clip-path="url(#clip0)" transform="translate(-433 -141)"><path d="M626 380.934C626 384.247 623.09 386.934 619.5 386.934 615.91 386.934 613 384.247 613 380.934 613 377.62 615.91 374.934 619.5 374.934 623.09 374.934 626 377.62 626 380.934Z" fill-rule="evenodd"/><path d="M619 382.424 619.962 190.924 622.962 190.939 622 382.439ZM616.955 192.409 621.5 183.432 625.955 192.454Z"/><path d="M620.377 383.649 476.463 487.267 474.71 484.832 618.624 381.215ZM479.433 488.825 469.5 490.432 474.174 481.521Z"/><path d="M622.002 379.757 811.935 447.246 810.931 450.073 620.998 382.584ZM811.526 443.917 818.5 451.171 808.513 452.398Z"/><path d="M738 318.934C738 322.247 735.314 324.934 732 324.934 728.686 324.934 726 322.247 726 318.934 726 315.62 728.686 312.934 732 312.934 735.314 312.934 738 315.62 738 318.934Z" fill-rule="evenodd"/><path d="M626 271.934C626 275.247 623.314 277.934 620 277.934 616.686 277.934 614 275.247 614 271.934 614 268.62 616.686 265.934 620 265.934 623.314 265.934 626 268.62 626 271.934Z" fill-rule="evenodd"/><path d="M573 354.934C573 358.247 570.09 360.934 566.5 360.934 562.91 360.934 560 358.247 560 354.934 560 351.62 562.91 348.934 566.5 348.934 570.09 348.934 573 351.62 573 354.934Z" fill-rule="evenodd"/><path d="M568 355.931 620 319.931" stroke="#000000" stroke-width="1.63654" stroke-miterlimit="8" stroke-dasharray="4.90961 1.63654" fill="none" fill-rule="evenodd"/><path d="M567 354.931 566 418.931" stroke="#000000" stroke-width="1.63654" stroke-miterlimit="8" stroke-dasharray="4.90961 1.63654" fill="none" fill-rule="evenodd"/><text font-family="Arial,Arial_MSFontService,sans-serif" font-weight="400" font-size="29" transform="translate(451.049 508)">x<tspan font-size="29" x="367.91" y="-50">y</tspan><tspan font-size="29" x="163.2" y="-329">z</tspan><tspan font-size="29" x="137.903" y="-226">B</tspan><tspan font-size="29" x="87.395" y="-144">C</tspan><tspan font-size="29" x="141.694" y="-125">A</tspan><tspan font-size="29" x="258.686" y="-185">P</tspan><tspan font-size="22" x="336.414" y="-218">u</tspan><tspan font-size="14" x="348.914" y="-213">r</tspan></text><path d="M619.68 379.22 624.169 382.1 623.809 382.661 619.32 379.781ZM625.852 383.18 630.341 386.06 629.981 386.621 625.492 383.741ZM632.024 387.14 636.513 390.02 636.153 390.581 631.664 387.701ZM638.196 391.1 642.685 393.981 642.325 394.542 637.836 391.661ZM644.368 395.061 648.857 397.941 648.497 398.502 644.008 395.622ZM650.54 399.021 655.029 401.901 654.669 402.462 650.18 399.582ZM656.712 402.981 661.201 405.862 660.841 406.423 656.352 403.542ZM662.884 406.942 667.373 409.822 667.013 410.383 662.524 407.503ZM669.056 410.902 673.545 413.782 673.185 414.343 668.696 411.463ZM675.228 414.862 679.717 417.742 679.357 418.303 674.868 415.423ZM681.4 418.822 685.889 421.703 685.529 422.264 681.04 419.384ZM687.572 422.783 692.061 425.663 691.701 426.224 687.212 423.344ZM693.744 426.743 698.233 429.623 697.873 430.184 693.384 427.304ZM699.916 430.703 704.405 433.584 704.045 434.145 699.556 431.264ZM706.088 434.664 710.577 437.544 710.217 438.105 705.728 435.225ZM712.26 438.624 716.749 441.504 716.389 442.065 711.9 439.185ZM718.432 442.584 722.921 445.464 722.561 446.026 718.072 443.145ZM725.055 442.477 729.628 450.164 720.734 449.21Z"/><path d="M728.167 449.3 728.167 443.967 728.833 443.967 728.833 449.3ZM728.167 441.967 728.167 436.633 728.833 436.633 728.833 441.967ZM728.167 434.633 728.167 429.3 728.833 429.3 728.833 434.633ZM728.167 427.3 728.167 421.967 728.833 421.967 728.833 427.3ZM728.167 419.967 728.167 414.633 728.833 414.633 728.833 419.967ZM728.167 412.633 728.167 407.3 728.833 407.3 728.833 412.633ZM728.167 405.3 728.167 399.967 728.833 399.967 728.833 405.3ZM728.167 397.967 728.167 392.633 728.833 392.633 728.833 397.967ZM728.167 390.633 728.167 385.3 728.833 385.3 728.833 390.633ZM728.167 383.3 728.167 377.967 728.833 377.967 728.833 383.3ZM728.167 375.967 728.167 370.633 728.833 370.633 728.833 375.967ZM728.167 368.633 728.167 363.3 728.833 363.3 728.833 368.633ZM728.167 361.3 728.167 355.967 728.833 355.967 728.833 361.3ZM728.167 353.967 728.167 348.633 728.833 348.633 728.833 353.967ZM728.167 346.633 728.167 341.3 728.833 341.3 728.833 346.633ZM728.167 339.3 728.167 333.967 728.833 333.967 728.833 339.3ZM728.167 331.967 728.167 331.167 728.833 331.167 728.833 331.967ZM724.5 332.5 728.5 324.5 732.5 332.5Z"/><path d="M733.723 318.632 757.71 352.435 755.264 354.172 731.277 320.368ZM759.289 349.476 760.827 359.42 751.949 354.684Z"/><path d="M0.74745-1.30051 44.9529 24.106 43.4579 26.707-0.74745 1.30051ZM45.1472 20.7575 50.7079 29.1437 40.6625 28.5605Z" transform="matrix(1 0 0 -1 735.5 317.644)"/><path d="M1.2901-0.765266 24.2548 37.9493 21.6746 39.4798-1.2901 0.765266ZM26.0698 35.1286 26.7911 45.165 18.3292 39.7202Z" transform="matrix(1 0 0 -1 732.5 320.665)"/><text font-family="Arial,Arial_MSFontService,sans-serif" font-weight="400" font-size="22" transform="translate(759.16 373)">u<tspan font-size="14" x="12.5" y="5">θ</tspan><tspan font-size="22" x="-10.7228" y="-108">u</tspan><tspan font-size="14" x="1.77716" y="-103">z</tspan></text><path d="M637.589 400.936 635.43 403.461 631.414 406.348 627.003 408.43 622.362 409.746 617.519 410.119 612.708 409.541 608.02 408.031 605.273 406.542 602.719 404.771 600.452 402.638 598.564 400.269 599.085 399.853 600.958 402.204 600.926 402.169 603.158 404.269 603.119 404.238 605.638 405.984 605.607 405.965 608.31 407.43 608.254 407.406 612.882 408.897 612.819 408.883 617.566 409.453 617.5 409.451 622.278 409.084 622.212 409.095 626.795 407.796 626.744 407.815 631.102 405.758 631.049 405.789 635.008 402.943 634.949 402.997 637.083 400.502ZM633.328 399.411 641.302 395.361 639.758 404.17Z"/><text font-family="Arial,Arial_MSFontService,sans-serif" font-style="italic" font-weight="400" font-size="22" transform="translate(638.292 338)">θ<tspan font-size="22" x="33.4168" y="30">R</tspan><tspan font-size="22" x="-30.7808" y="92">Φ</tspan></text><path d="M0.163449-0.290509 100.521 56.1735 100.194 56.7545-0.163449 0.290509ZM101.157 52.3241 106.168 59.733 97.2343 59.2964Z" transform="matrix(1 0 0 -1 620.5 381.233)"/><path d="M22.6459 0.0941195 25.9384-0.272998 30.8194 0.29751 35.5045 1.7537 39.7467 4.03308 43.4845 7.01065 46.5897 10.7496 48.9375 15.0643 50.4478 20.9167 49.8022 21.0833 48.3022 15.2708 48.3322 15.3468 46.0197 11.0968 46.0561 11.1505 42.9936 7.46297 43.0423 7.51072 39.3548 4.57322 39.4047 4.60613 35.2172 2.35613 35.2761 2.38081 30.6511 0.943313 30.7113 0.956079 25.8988 0.393579 25.9744 0.39378 22.7198 0.75668ZM24.7142 4.12019 16.125 1.625 23.2747-3.74923Z" transform="matrix(-0.630485 -0.776201 -0.776201 0.630485 670.464 368.789)"/></g></svg>