<svg width="418" height="392" xmlns="http://www.w3.org/2000/svg" xmlns:xlink="http://www.w3.org/1999/xlink" overflow="hidden"><defs><clipPath id="clip0"><rect x="433" y="141" width="418" height="392"/></clipPath></defs><g clip-path="url(#clip0)" transform="translate(-433 -141)"><path d="M626 380.934C626 384.247 623.09 386.934 619.5 386.934 615.91 386.934 613 384.247 613 380.934 613 377.62 615.91 374.934 619.5 374.934 623.09 374.934 626 377.62 626 380.934Z" fill-rule="evenodd"/><path d="M619 382.424 619.962 190.924 622.962 190.939 622 382.439ZM616.955 192.409 621.5 183.432 625.955 192.454Z"/><path d="M620.377 383.649 476.463 487.267 474.71 484.832 618.624 381.215ZM479.433 488.825 469.5 490.432 474.174 481.521Z"/><path d="M622.002 379.757 811.935 447.246 810.931 450.073 620.998 382.584ZM811.526 443.917 818.5 451.171 808.513 452.398Z"/><path d="M691 253.428C691 257.018 688.314 259.928 685 259.928 681.686 259.928 679 257.018 679 253.428 679 249.838 681.686 246.928 685 246.928 688.314 246.928 691 249.838 691 253.428Z" fill-rule="evenodd"/><path d="M626 271.934C626 275.247 623.314 277.934 620 277.934 616.686 277.934 614 275.247 614 271.934 614 268.62 616.686 265.934 620 265.934 623.314 265.934 626 268.62 626 271.934Z" fill-rule="evenodd"/><path d="M573 354.934C573 358.247 570.09 360.934 566.5 360.934 562.91 360.934 560 358.247 560 354.934 560 351.62 562.91 348.934 566.5 348.934 570.09 348.934 573 351.62 573 354.934Z" fill-rule="evenodd"/><path d="M568 355.931 620 319.931" stroke="#000000" stroke-width="1.63654" stroke-miterlimit="8" stroke-dasharray="4.90961 1.63654" fill="none" fill-rule="evenodd"/><path d="M567 354.931 566 418.931" stroke="#000000" stroke-width="1.63654" stroke-miterlimit="8" stroke-dasharray="4.90961 1.63654" fill="none" fill-rule="evenodd"/><text font-family="Arial,Arial_MSFontService,sans-serif" font-weight="400" font-size="29" transform="translate(451.049 508)">x<tspan font-size="29" x="367.91" y="-50">y</tspan><tspan font-size="29" x="163.2" y="-329">z</tspan><tspan font-size="29" x="137.903" y="-226">B</tspan><tspan font-size="29" x="87.395" y="-144">C</tspan><tspan font-size="29" x="173.728" y="-133">A</tspan><tspan font-size="29" x="205.864" y="-245">P</tspan><tspan font-size="22" x="258.96" y="-194">u</tspan><tspan font-size="14" x="271.46" y="-189">r</tspan></text><path d="M619.776 379.314 680.634 469.578 680.081 469.951 619.224 379.686ZM682.929 466.423 684.084 475.292 676.296 470.895Z"/><path d="M684.167 475.191 684.167 269.167 684.833 269.167 684.833 475.191ZM680.5 270.5 684.5 262.5 688.5 270.5Z"/><path d="M685.737 253.652 710.707 290.098 708.232 291.794 683.263 255.348ZM712.334 287.165 713.708 297.133 704.909 292.252Z"/><path d="M0.399688-1.44577 48.188 11.7655 47.3886 14.657-0.399688 1.44577ZM47.5416 8.47422 55.0171 15.2097 45.1434 17.1488Z" transform="matrix(1 0 0 -1 684.5 253.71)"/><path d="M1.5-2.74911e-06 1.50009 49.7841-1.49991 49.7841-1.5 2.74911e-06ZM4.50009 48.2841 0.000104987 57.2841-4.49991 48.2841Z" transform="matrix(1 0 0 -1 685.5 255.784)"/><text font-family="Arial,Arial_MSFontService,sans-serif" font-weight="400" font-size="22" transform="translate(743.456 242)">u<tspan font-size="14" x="12.5" y="5">θ</tspan><tspan font-size="22" x="-65.6992" y="-51">u</tspan><tspan font-size="14" x="-53.1992" y="-46">z</tspan></text><path d="M628.054 407.687 624.976 408.893 620.118 409.583 615.385 409.338 610.806 408.21 606.559 406.231 602.73 403.413 599.573 399.78 600.076 399.342 603.208 402.948 603.154 402.898 606.927 405.674 606.871 405.64 611.058 407.592 610.997 407.571 615.513 408.683 615.451 408.674 620.12 408.915 620.056 408.918 624.844 408.238 624.769 408.258 627.811 407.066ZM625.012 404.336 633.954 404.515 628.445 411.562Z"/><text font-family="Arial,Arial_MSFontService,sans-serif" font-style="italic" font-weight="400" font-size="22" transform="translate(605.308 429)">θ<tspan font-size="22" x="35.3969" y="28">R</tspan><tspan font-size="22" x="83.2695" y="-55">Z</tspan></text></g></svg>